<?xml version="1.0" encoding="utf-8"?>
<!-- Generator: Adobe Illustrator 19.0.0, SVG Export Plug-In . SVG Version: 6.00 Build 0)  -->
<svg version="1.1" id="Layer_1" xmlns="http://www.w3.org/2000/svg" xmlns:xlink="http://www.w3.org/1999/xlink" x="0px" y="0px"
	 viewBox="0 0 512 512" style="enable-background:new 0 0 512 512;" xml:space="preserve">
<g id="XMLID_2_">
	<path id="XMLID_7_" d="M256.5,17.2L512,119.4v34.4h-34.4c0,4.6-1.9,8.4-5.6,12.1s-8.4,4.6-13,4.6H53c-4.6,0-9.3-1.9-13-4.6
		c-3.7-2.8-5.6-7.4-5.6-12.1H0v-34.4L256.5,17.2z M68.8,188.2h67.8v204.4H171V188.2h67.8v204.4h34.4V188.2H341v204.4h34.4V188.2
		h67.8v204.4H459c4.6,0,9.3,1.9,13,4.6c3.7,2.8,5.6,7.4,5.6,12.1V426H35.3v-16.7c0-4.6,1.9-8.4,5.6-12.1c3.7-3.7,8.4-4.6,13-4.6
		h15.8V188.2H68.8z M493.4,443.7c4.6,0,9.3,1.9,13,4.6c3.7,3.7,5.6,7.4,5.6,12.1v34.4H0.9v-34.4c0-4.6,1.9-8.4,5.6-12.1
		s8.4-4.6,13-4.6H493.4z"/>
</g>
</svg>
